<?xml version="1.0" encoding="utf-8"?>
<!-- Generator: Adobe Illustrator 25.2.0, SVG Export Plug-In . SVG Version: 6.00 Build 0)  -->
<svg version="1.1" id="Layer_1" xmlns="http://www.w3.org/2000/svg" xmlns:xlink="http://www.w3.org/1999/xlink" x="0px" y="0px"
	 viewBox="0 0 400 218" style="enable-background:new 0 0 400 218;" xml:space="preserve">
<style type="text/css">
	.st0{fill:#FFF1E0;}
	.st1{fill:#FFFFFF;}
	.st2{fill:#FFDEB6;}
	.st3{fill:#F7931A;}
</style>
<path id="Path_1" class="st0" d="M290.73,218C351.08,218,400,169.2,400,109S351.08,0,290.73,0S181.47,48.8,181.47,109
	S230.39,218,290.73,218z"/>
<path id="Path_2" class="st1" d="M341.89,95.65c2.29-15.27-9.38-23.48-25.33-28.96L321.74,46l-12.63-3.13l-5.04,20.14
	c-3.32-0.83-6.73-1.6-10.12-2.37l5.08-20.27l-12.63-3.14l-5.17,20.68c-2.75-0.63-5.45-1.24-8.07-1.89l0.01-0.07l-17.42-4.33
	l-3.36,13.45c0,0,9.38,2.14,9.18,2.27c5.12,1.27,6.04,4.65,5.88,7.33l-5.89,23.57c0.45,0.11,0.89,0.25,1.32,0.42l-1.34-0.33
	l-8.26,33.02c-0.63,1.54-2.21,3.87-5.8,2.99c0.13,0.18-9.18-2.28-9.18-2.28l-6.27,14.41l16.44,4.09c3.06,0.76,6.05,1.57,9,2.32
	l-5.23,20.92l12.62,3.13l5.17-20.69c3.35,0.9,6.71,1.76,10.07,2.6l-5.16,20.6l12.63,3.13l5.23-20.88c21.55,4.07,37.74,2.43,44.56-17
	c5.5-15.63-0.27-24.66-11.61-30.54C334.01,112.24,340.23,106.83,341.89,95.65L341.89,95.65z M313.02,135.99
	c-3.9,15.64-30.32,7.18-38.88,5.06l6.94-27.72C289.64,115.47,317.1,119.69,313.02,135.99z M316.93,95.42
	c-3.56,14.23-25.54,6.99-32.67,5.22l6.29-25.13C297.67,77.28,320.64,80.58,316.93,95.42L316.93,95.42z"/>
<path id="Path_3" class="st2" d="M196.14,218c60.35,0,109.27-48.8,109.27-109S256.49,0,196.14,0S86.87,48.8,86.87,109
	S135.8,218,196.14,218z"/>
<path id="Path_4" class="st1" d="M247.3,95.65c2.3-15.27-9.38-23.48-25.33-28.96L227.14,46l-12.63-3.13l-5.04,20.14
	c-3.32-0.83-6.73-1.6-10.12-2.37l5.08-20.28l-12.63-3.14l-5.18,20.68c-2.75-0.63-5.45-1.24-8.07-1.89l0.01-0.07l-17.42-4.33
	l-3.36,13.45c0,0,9.38,2.14,9.18,2.27c5.12,1.27,6.04,4.65,5.88,7.33l-5.89,23.57c0.45,0.11,0.89,0.25,1.32,0.42l-1.34-0.33
	l-8.26,33.02c-0.63,1.54-2.21,3.87-5.8,2.99c0.13,0.18-9.18-2.28-9.18-2.28l-6.27,14.41l16.44,4.09c3.06,0.76,6.05,1.57,9,2.32
	l-5.23,20.92l12.62,3.13l5.17-20.69c3.35,0.9,6.71,1.76,10.07,2.6l-5.16,20.6l12.63,3.13l5.23-20.88c21.55,4.07,37.74,2.43,44.56-17
	c5.5-15.63-0.27-24.66-11.61-30.54C239.42,112.24,245.64,106.83,247.3,95.65L247.3,95.65z M218.43,135.99
	c-3.9,15.64-30.32,7.18-38.88,5.06l6.94-27.72C195.05,115.47,222.51,119.69,218.43,135.99z M222.34,95.42
	c-3.56,14.23-25.54,6.99-32.67,5.22l6.28-25.14C203.08,77.28,226.05,80.58,222.34,95.42L222.34,95.42z"/>
<path id="Path_5" class="st3" d="M109.27,218c60.35,0,109.27-48.8,109.27-109S169.61,0,109.27,0S0,48.8,0,109S48.92,218,109.27,218z
	"/>
<path id="Path_6" class="st1" d="M160.42,95.65c2.29-15.27-9.38-23.48-25.33-28.96L140.27,46l-12.63-3.13l-5.04,20.14
	c-3.32-0.83-6.73-1.6-10.12-2.37l5.08-20.27l-12.63-3.14L99.75,57.9c-2.75-0.63-5.45-1.24-8.07-1.89l0.01-0.07l-17.42-4.33
	l-3.36,13.45c0,0,9.38,2.14,9.18,2.27c5.12,1.27,6.04,4.65,5.88,7.33l-5.89,23.57c0.45,0.11,0.89,0.25,1.32,0.42l-1.34-0.33
	l-8.26,33.02c-0.63,1.54-2.21,3.87-5.8,2.99c0.13,0.18-9.18-2.28-9.18-2.28l-6.27,14.41L67,150.53c3.06,0.76,6.05,1.57,9,2.32
	l-5.23,20.92l12.62,3.13l5.17-20.69c3.35,0.9,6.71,1.76,10.07,2.6l-5.16,20.6l12.63,3.13l5.23-20.88c21.55,4.07,37.74,2.43,44.56-17
	c5.5-15.63-0.27-24.66-11.61-30.54C152.55,112.24,158.76,106.83,160.42,95.65L160.42,95.65z M131.55,135.99
	c-3.9,15.64-30.32,7.18-38.88,5.06l6.94-27.72C108.18,115.47,135.64,119.69,131.55,135.99z M135.46,95.42
	c-3.56,14.23-25.54,6.99-32.67,5.22l6.29-25.13C116.2,77.28,139.17,80.58,135.46,95.42L135.46,95.42z"/>
</svg>
